<svg version="1.1" fill="#fef3e2" xmlns="http://www.w3.org/2000/svg" preserveAspectRatio="none" viewBox="0 0 640 262" width="640" height="262">
    <path d="M0 251.31L0.01 0L640.01 0L640.01 161.11C635.7 164.73 633.01 166.99 631.94 167.9C600.25 194.55 559.15 207.29 517.95 203.23C485.73 200.07 485.63 200.06 461.44 197.68C392.12 190.86 322.16 194.4 253.88 208.19C240.84 210.82 258.85 207.19 234.35 212.13C203.99 218.26 174.44 227.87 146.29 240.76C132.74 246.97 143.57 242.01 132.29 247.17C97.54 263.09 58.37 266.52 21.38 256.88C18.53 256.14 11.4 254.28 0 251.31Z">
    </path>
</svg>
